<svg width="63" height="19" viewBox="0 0 63 19" fill="none" xmlns="http://www.w3.org/2000/svg">
<path d="M0.342773 18V0.324219H4.49316V7.86816H4.7373L10.6699 0.324219H15.6016L9.27832 8.20996L15.6992 18H10.7188L6.25098 10.9932L4.49316 13.166V18H0.342773Z" fill="url(#paint0_linear_1450_6)"/>
<path d="M17.2617 18V0.324219H29.249V3.71777H21.4121V7.45312H28.4678V10.8467H21.4121V18H17.2617ZM30.7871 3.71777V0.324219H45.6553V3.71777H40.2842V18H36.1582V3.71777H30.7871Z" fill="white"/>
<path d="M58.668 6.69629C58.4238 4.88965 57.1299 3.74219 55.1523 3.74219C52.54 3.74219 50.9531 5.71973 50.9531 9.16211C50.9531 12.7266 52.5889 14.582 55.1279 14.582C57.0322 14.582 58.3506 13.5566 58.668 11.8232L62.8672 11.8477C62.5254 14.9971 59.8398 18.2441 55.0547 18.2441C50.2695 18.2441 46.7051 14.9727 46.7051 9.16211C46.7051 3.32715 50.3428 0.0800781 55.0547 0.0800781C59.3027 0.0800781 62.4277 2.47266 62.8672 6.69629H58.668Z" fill="url(#paint1_linear_1450_6)"/>
<defs>
<linearGradient id="paint0_linear_1450_6" x1="31.5" y1="24" x2="31.5" y2="-6" gradientUnits="userSpaceOnUse">
<stop stop-color="#FFBABA"/>
<stop offset="0.711538" stop-color="#FF6B6B"/>
</linearGradient>
<linearGradient id="paint1_linear_1450_6" x1="31.5" y1="-6" x2="31.5" y2="24" gradientUnits="userSpaceOnUse">
<stop offset="0.548077" stop-color="#588DFF"/>
<stop offset="0.918269" stop-color="#0051FF"/>
</linearGradient>
</defs>
</svg>
