<svg width="8" height="14" viewBox="0 0 8 14" fill="none" xmlns="http://www.w3.org/2000/svg">
<path fill-rule="evenodd" clip-rule="evenodd" d="M7.37629 6.46884C7.56376 6.648 7.66907 6.89096 7.66907 7.14429C7.66907 7.39762 7.56376 7.64057 7.37629 7.81973L1.71929 13.2242C1.62704 13.3155 1.5167 13.3883 1.39469 13.4383C1.27269 13.4884 1.14147 13.5148 1.00869 13.5159C0.87591 13.517 0.744231 13.4928 0.621335 13.4448C0.498438 13.3967 0.386786 13.3258 0.292893 13.2361C0.199 13.1464 0.124747 13.0397 0.0744663 12.9223C0.0241854 12.8049 -0.00111606 12.6791 3.77571e-05 12.5522C0.00119157 12.4254 0.0287779 12.3 0.0811869 12.1835C0.133596 12.0669 0.209778 11.9615 0.305288 11.8734L5.25529 7.14429L0.305288 2.41522C0.12313 2.23503 0.0223355 1.9937 0.0246139 1.74321C0.0268924 1.49271 0.132061 1.2531 0.317469 1.07596C0.502877 0.89883 0.75369 0.798355 1.01589 0.796179C1.27808 0.794002 1.53069 0.890298 1.71929 1.06433L7.37629 6.46884Z" fill="white"/>
</svg>
