<svg width="17" height="17" viewBox="0 0 17 17" fill="none" xmlns="http://www.w3.org/2000/svg">
<path d="M15.1111 9.44444V14.1667C15.1111 14.6861 14.6861 15.1111 14.1667 15.1111H2.83333C2.31389 15.1111 1.88889 14.6861 1.88889 14.1667V9.44444C1.88889 8.925 1.46389 8.5 0.944444 8.5C0.425 8.5 0 8.925 0 9.44444V15.1111C0 16.15 0.85 17 1.88889 17H15.1111C16.15 17 17 16.15 17 15.1111V9.44444C17 8.925 16.575 8.5 16.0556 8.5C15.5361 8.5 15.1111 8.925 15.1111 9.44444ZM9.44444 9.13278L11.22 7.35722C11.3074 7.26978 11.4112 7.20042 11.5255 7.1531C11.6397 7.10578 11.7622 7.08142 11.8858 7.08142C12.0095 7.08142 12.1319 7.10578 12.2462 7.1531C12.3604 7.20042 12.4642 7.26978 12.5517 7.35722C12.6391 7.44466 12.7085 7.54846 12.7558 7.66271C12.8031 7.77695 12.8275 7.8994 12.8275 8.02306C12.8275 8.14671 12.8031 8.26916 12.7558 8.3834C12.7085 8.49765 12.6391 8.60145 12.5517 8.68889L9.16111 12.0794C9.07374 12.167 8.96995 12.2365 8.8557 12.2839C8.74145 12.3312 8.61897 12.3556 8.49528 12.3556C8.37159 12.3556 8.24911 12.3312 8.13485 12.2839C8.0206 12.2365 7.91682 12.167 7.82944 12.0794L4.43889 8.68889C4.2623 8.5123 4.16309 8.27279 4.16309 8.02306C4.16309 7.77332 4.2623 7.53381 4.43889 7.35722C4.61548 7.18063 4.85499 7.08142 5.10472 7.08142C5.35446 7.08142 5.59397 7.18063 5.77056 7.35722L7.55556 9.13278V0.944444C7.55556 0.425 7.98056 0 8.5 0C9.01944 0 9.44444 0.425 9.44444 0.944444V9.13278Z" fill="white"/>
</svg>
