<svg width="6" height="10" viewBox="0 0 6 10" fill="none" xmlns="http://www.w3.org/2000/svg">
<path fill-rule="evenodd" clip-rule="evenodd" d="M5.77093 4.6744C5.91761 4.80896 6 4.99144 6 5.18172C6 5.37199 5.91761 5.55447 5.77093 5.68904L1.34511 9.74831C1.27294 9.81685 1.18661 9.87151 1.09116 9.90912C0.995705 9.94673 0.893043 9.96652 0.789161 9.96735C0.68528 9.96818 0.582259 9.95002 0.486109 9.91394C0.38996 9.87786 0.302607 9.82458 0.229149 9.7572C0.15569 9.68983 0.0975976 9.60971 0.0582597 9.52153C0.0189218 9.43334 -0.000873164 9.33885 2.95397e-05 9.24357C0.000932243 9.1483 0.0225147 9.05414 0.0635176 8.96659C0.10452 8.87904 0.164122 8.79987 0.238846 8.73367L4.11154 5.18172L0.238846 1.62976C0.0963322 1.49443 0.0174745 1.31317 0.019257 1.12503C0.0210396 0.936884 0.10332 0.756909 0.248376 0.623866C0.393433 0.490824 0.589659 0.415358 0.794792 0.413723C0.999925 0.412088 1.19755 0.484415 1.34511 0.615126L5.77093 4.6744Z" fill="white" fill-opacity="0.59"/>
</svg>
